<?xml version="1.0" encoding="UTF-8"?>
<svg xmlns="http://www.w3.org/2000/svg" xmlns:xlink="http://www.w3.org/1999/xlink" width="40px" height="60px" viewBox="0 0 40 60" version="1.1">
<g id="surface1">
<path style=" stroke:none;fill-rule:nonzero;fill:rgb(0%,0%,0%);fill-opacity:1;" d="M 15.890625 4.257812 C 15.820312 4.296875 15.75 4.359375 15.730469 4.398438 C 15.648438 4.617188 15.570312 6.335938 15.601562 7.265625 C 15.769531 12.148438 17.480469 15.570312 20.527344 17.117188 C 20.859375 17.289062 21.382812 17.507812 21.6875 17.613281 L 22.238281 17.796875 L 22.273438 18.132812 C 22.296875 18.320312 22.332031 18.632812 22.351562 18.84375 C 22.535156 20.679688 23.074219 23.328125 23.691406 25.449219 C 24.476562 28.121094 25.238281 30.074219 27.179688 34.414062 C 28.558594 37.492188 29.023438 38.625 29.507812 40.101562 C 30.445312 42.984375 30.527344 45.523438 29.761719 47.875 C 29.527344 48.597656 28.796875 50.023438 28.359375 50.625 C 26.257812 53.5 22.972656 55.097656 19.445312 54.960938 C 18.472656 54.929688 17.8125 54.824219 16.917969 54.570312 C 13.648438 53.648438 10.9375 51.078125 9.871094 47.890625 C 9.519531 46.820312 9.40625 46.15625 9.378906 44.839844 C 9.332031 43.007812 9.535156 41.65625 10.09375 40.023438 C 10.695312 38.269531 11.824219 36.445312 13.039062 35.285156 L 13.296875 35.039062 L 13.25 35.34375 C 13.101562 36.226562 12.960938 37.789062 12.925781 38.777344 C 12.851562 40.941406 13.117188 42.210938 13.769531 42.929688 C 14.070312 43.257812 14.40625 43.398438 14.917969 43.394531 C 15.464844 43.386719 15.75 43.253906 16.277344 42.777344 C 16.796875 42.304688 16.980469 42.210938 17.351562 42.210938 C 17.726562 42.210938 17.84375 42.273438 18.335938 42.730469 C 18.859375 43.21875 19.238281 43.386719 19.789062 43.394531 C 20.351562 43.394531 20.703125 43.230469 21.289062 42.703125 C 21.808594 42.238281 22.0625 42.140625 22.507812 42.230469 C 22.730469 42.277344 22.871094 42.375 23.25 42.714844 C 23.789062 43.210938 23.960938 43.304688 24.398438 43.375 C 24.785156 43.4375 24.980469 43.375 25.035156 43.175781 C 25.101562 42.902344 24.980469 42.753906 24.667969 42.710938 C 24.285156 42.65625 24.117188 42.558594 23.648438 42.128906 C 23.128906 41.648438 22.835938 41.511719 22.269531 41.511719 C 21.695312 41.511719 21.332031 41.675781 20.777344 42.183594 C 20.320312 42.613281 20.167969 42.683594 19.796875 42.683594 C 19.429688 42.683594 19.296875 42.621094 18.824219 42.191406 C 18.261719 41.675781 17.898438 41.511719 17.324219 41.511719 C 16.773438 41.507812 16.464844 41.648438 15.9375 42.140625 C 15.476562 42.570312 15.261719 42.683594 14.929688 42.683594 C 14.554688 42.683594 14.324219 42.519531 14.128906 42.09375 C 13.867188 41.542969 13.773438 40.875 13.785156 39.613281 C 13.804688 38.070312 13.980469 36.515625 14.398438 34.453125 C 14.535156 33.761719 14.539062 33.710938 14.445312 33.574219 C 14.324219 33.390625 14.117188 33.296875 13.929688 33.34375 C 13.546875 33.433594 12.210938 34.597656 11.441406 35.496094 C 9.628906 37.640625 8.554688 40.265625 8.261719 43.257812 C 8.1875 44.035156 8.226562 45.828125 8.335938 46.476562 C 8.601562 48.019531 9.179688 49.535156 9.960938 50.757812 C 11.582031 53.289062 14.039062 55.0625 16.960938 55.789062 C 19.527344 56.433594 22.382812 56.160156 24.769531 55.03125 C 27.15625 53.90625 29.046875 52.0625 30.203125 49.726562 C 31.085938 47.9375 31.445312 46.242188 31.378906 44.242188 C 31.351562 43.71875 31.324219 43.195312 31.308594 43.085938 C 31.289062 42.976562 31.230469 42.65625 31.1875 42.375 C 30.851562 40.375 30.117188 38.378906 28.140625 34.097656 C 25 27.28125 23.808594 23.632812 23.140625 18.757812 C 22.976562 17.585938 22.964844 17.675781 23.359375 17.554688 C 23.539062 17.496094 23.972656 17.308594 24.308594 17.140625 C 27.191406 15.6875 28.882812 12.585938 29.238281 8.128906 C 29.296875 7.429688 29.277344 5.339844 29.214844 4.792969 C 29.132812 4.132812 28.90625 4.09375 28.15625 4.585938 C 26.304688 5.820312 24.289062 8.066406 22.757812 10.609375 C 22.601562 10.875 22.460938 11.085938 22.441406 11.085938 C 22.425781 11.085938 22.304688 10.914062 22.179688 10.695312 C 20.695312 8.191406 18.601562 5.847656 16.738281 4.585938 C 16.269531 4.273438 16.054688 4.191406 15.890625 4.257812 Z M 17.140625 5.757812 C 18.851562 7.128906 20.90625 9.679688 21.953125 11.730469 C 22.0625 11.945312 22.203125 12.144531 22.273438 12.179688 C 22.523438 12.316406 22.648438 12.210938 23.027344 11.535156 C 24.378906 9.136719 26.238281 6.898438 27.976562 5.566406 L 28.519531 5.15625 L 28.558594 5.433594 C 28.582031 5.585938 28.59375 6.117188 28.59375 6.605469 C 28.570312 11.375 27.070312 14.789062 24.308594 16.367188 C 23.90625 16.597656 22.980469 16.988281 22.945312 16.941406 C 22.917969 16.914062 22.859375 15.929688 22.820312 14.734375 C 22.796875 14.226562 22.773438 13.757812 22.757812 13.6875 C 22.714844 13.472656 22.3125 13.414062 22.164062 13.601562 C 22.085938 13.707031 22.074219 15.398438 22.148438 16.503906 C 22.167969 16.851562 22.164062 17.003906 22.117188 17.003906 C 21.851562 17.003906 20.703125 16.480469 20.109375 16.085938 C 19.558594 15.714844 18.5625 14.707031 18.167969 14.109375 C 17.289062 12.773438 16.703125 11.054688 16.425781 8.984375 C 16.3125 8.175781 16.242188 6.242188 16.304688 5.613281 L 16.351562 5.167969 L 16.527344 5.292969 C 16.632812 5.363281 16.90625 5.570312 17.140625 5.757812 Z M 17.140625 5.757812 "/>
<path style=" stroke:none;fill-rule:nonzero;fill:rgb(0%,0%,0%);fill-opacity:1;" d="M 17.191406 7.21875 C 17.132812 7.277344 17.148438 8.570312 17.210938 9.191406 C 17.472656 11.679688 18.476562 13.746094 19.992188 14.929688 C 20.1875 15.074219 20.351562 15.164062 20.429688 15.152344 C 20.664062 15.117188 20.601562 14.941406 20.210938 14.527344 C 19.261719 13.515625 18.558594 12.117188 18.101562 10.34375 C 17.925781 9.632812 17.679688 8.363281 17.585938 7.667969 C 17.535156 7.238281 17.507812 7.179688 17.359375 7.179688 C 17.289062 7.179688 17.210938 7.195312 17.191406 7.21875 Z M 17.191406 7.21875 "/>
<path style=" stroke:none;fill-rule:nonzero;fill:rgb(0%,0%,0%);fill-opacity:1;" d="M 14.417969 45.609375 C 14.085938 45.710938 13.785156 45.914062 13.390625 46.273438 C 12.964844 46.664062 12.777344 46.765625 12.511719 46.765625 C 12.167969 46.765625 11.992188 47.054688 12.148438 47.34375 C 12.203125 47.429688 12.277344 47.453125 12.546875 47.453125 C 13.007812 47.453125 13.382812 47.265625 13.914062 46.773438 C 14.382812 46.347656 14.691406 46.210938 15.070312 46.28125 C 15.351562 46.339844 15.429688 46.390625 15.890625 46.804688 C 16.453125 47.320312 16.757812 47.453125 17.359375 47.453125 C 17.945312 47.453125 18.222656 47.328125 18.851562 46.773438 C 19.640625 46.0625 20.019531 46.082031 20.871094 46.855469 C 21.417969 47.351562 21.648438 47.453125 22.238281 47.453125 C 22.835938 47.453125 23.167969 47.304688 23.710938 46.804688 C 24.15625 46.390625 24.238281 46.335938 24.546875 46.28125 C 24.925781 46.210938 25.191406 46.328125 25.675781 46.773438 C 26.210938 47.265625 26.585938 47.453125 27.039062 47.453125 C 27.40625 47.453125 27.5 47.390625 27.5 47.136719 C 27.5 46.910156 27.34375 46.765625 27.101562 46.765625 C 26.8125 46.765625 26.664062 46.679688 26.1875 46.253906 C 25.570312 45.695312 25.332031 45.585938 24.710938 45.585938 C 24.101562 45.585938 23.820312 45.71875 23.203125 46.273438 C 22.742188 46.695312 22.601562 46.765625 22.261719 46.765625 C 21.914062 46.765625 21.679688 46.644531 21.195312 46.203125 C 20.695312 45.742188 20.296875 45.558594 19.796875 45.558594 C 19.296875 45.558594 18.898438 45.742188 18.398438 46.203125 C 17.914062 46.644531 17.679688 46.765625 17.324219 46.765625 C 17.011719 46.765625 16.789062 46.644531 16.320312 46.210938 C 15.804688 45.742188 15.507812 45.601562 14.976562 45.582031 C 14.75 45.570312 14.5 45.582031 14.417969 45.609375 Z M 14.417969 45.609375 "/>
<path style=" stroke:none;fill-rule:nonzero;fill:rgb(0%,0%,0%);fill-opacity:1;" d="M 16.726562 49.734375 C 16.535156 49.800781 16.289062 49.972656 15.972656 50.257812 C 15.464844 50.710938 15.230469 50.84375 14.941406 50.84375 C 14.601562 50.84375 14.40625 51.226562 14.640625 51.433594 C 14.804688 51.578125 15.261719 51.5625 15.617188 51.398438 C 15.777344 51.320312 16.109375 51.078125 16.351562 50.863281 C 17.128906 50.164062 17.527344 50.160156 18.273438 50.820312 C 18.960938 51.433594 19.109375 51.507812 19.796875 51.507812 C 20.324219 51.507812 20.398438 51.492188 20.648438 51.351562 C 20.796875 51.261719 21.101562 51.023438 21.324219 50.820312 C 22.0625 50.152344 22.476562 50.160156 23.230469 50.851562 C 23.757812 51.332031 24.148438 51.535156 24.574219 51.535156 C 24.917969 51.535156 25.058594 51.433594 25.058594 51.195312 C 25.058594 50.980469 24.941406 50.898438 24.582031 50.835938 C 24.390625 50.804688 24.214844 50.734375 24.09375 50.632812 C 23.238281 49.90625 23.117188 49.816406 22.808594 49.726562 C 22.398438 49.589844 21.8125 49.625 21.464844 49.804688 C 21.332031 49.871094 21.039062 50.097656 20.820312 50.296875 C 20.027344 51.035156 19.574219 51.039062 18.789062 50.308594 C 18.570312 50.101562 18.273438 49.878906 18.132812 49.804688 C 17.789062 49.632812 17.121094 49.597656 16.726562 49.734375 Z M 16.726562 49.734375 "/>
</g>
</svg>
